HIERARCHY
ROOT Hips
{
	OFFSET 0.000000 0.000000 0.000000 
	CHANNELS 6 Xposition Yposition Zposition Zrotation Yrotation Xrotation
	JOINT LeftUpLeg
	{
		OFFSET 1.363060 -1.794630 0.839290 
		CHANNELS 3 Zrotation Yrotation Xrotation
		JOINT LeftLeg
		{
			OFFSET 2.448110 -6.726130 0.000000 
			CHANNELS 3 Zrotation Yrotation Xrotation
			JOINT LeftFoot
			{
				OFFSET 2.562200 -7.039590 0.000000 
				CHANNELS 3 Zrotation Yrotation Xrotation
				JOINT LeftToeBase
				{
					OFFSET 0.157640 -0.433110 2.322550 
					CHANNELS 3 Zrotation Yrotation Xrotation
					End Site
					{
						OFFSET 0.000000 0.000000 0.000000 
					}
				}
			}
		}
	}
	JOINT RightUpLeg
	{
		OFFSET -1.305520 -1.794630 0.839290 
		CHANNELS 3 Zrotation Yrotation Xrotation
		JOINT RightLeg
		{
			OFFSET -2.542530 -6.985550 0.000000 
			CHANNELS 3 Zrotation Yrotation Xrotation
			JOINT RightFoot
			{
				OFFSET -2.568260 -7.056230 0.000000 
				CHANNELS 3 Zrotation Yrotation Xrotation
				JOINT RightToeBase
				{
					OFFSET -0.164730 -0.452590 2.363150 
					CHANNELS 3 Zrotation Yrotation Xrotation
					End Site
					{
						OFFSET 0.000000 0.000000 0.000000 
					}
				}
			}
		}
	}
	JOINT Spine
	{
		OFFSET 0.028270 2.035590 -0.193380 
		CHANNELS 3 Zrotation Yrotation Xrotation
		JOINT Spine1
		{
			OFFSET 0.056720 2.048850 -0.042750 
			CHANNELS 3 Zrotation Yrotation Xrotation
			JOINT Neck1
			{
				OFFSET -0.054170 1.746240 0.172020 
				CHANNELS 3 Zrotation Yrotation Xrotation
				JOINT Head
				{
					OFFSET 0.104070 1.761360 -0.123970 
					CHANNELS 3 Zrotation Yrotation Xrotation
					End Site
					{
						OFFSET 0.000000 0.000000 0.000000 
					}
				}
			}
			JOINT LeftArm
			{
				OFFSET 3.362410 1.200890 -0.311210 
				CHANNELS 3 Zrotation Yrotation Xrotation
				JOINT LeftForeArm
				{
					OFFSET 4.983000 -0.000000 -0.000000 
					CHANNELS 3 Zrotation Yrotation Xrotation
					JOINT LeftHand
					{
						OFFSET 3.483560 -0.000000 -0.000000 
						CHANNELS 3 Zrotation Yrotation Xrotation
						JOINT LeftHandIndex1
						{
							OFFSET 0.715260 -0.000000 -0.000000 
							CHANNELS 3 Zrotation Yrotation Xrotation
							End Site
							{
								OFFSET 0.000000 0.000000 0.000000 
							}
						}
					}
				}
			}
			JOINT RightArm
			{
				OFFSET -3.136600 1.374050 -0.404650 
				CHANNELS 3 Zrotation Yrotation Xrotation
				JOINT RightForeArm
				{
					OFFSET -5.241900 -0.000000 -0.000000 
					CHANNELS 3 Zrotation Yrotation Xrotation
					JOINT RightHand
					{
						OFFSET -3.444170 -0.000000 -0.000000 
						CHANNELS 3 Zrotation Yrotation Xrotation
						JOINT RightHandIndex1
						{
							OFFSET -0.622530 -0.000000 -0.000000 
							CHANNELS 3 Zrotation Yrotation Xrotation
							End Site
							{
								OFFSET 0.000000 0.000000 0.000000 
							}
						}
					}
				}
			}
		}
	}
}
MOTION
Frames: 7
Frame Time: 0.041667
8.805168 17.819517 49.995567 -178.927989 -1.451683 179.017423 -19.761715 -21.366539 -1.101259 -2.569158 8.541509 24.276894 -4.772434 15.041980 -9.247058 1.195500 -6.937800 -19.531100 18.883338 8.480757 -7.091359 1.166782 -9.430423 28.819846 5.190482 -18.337104 -15.441314 -2.746200 -10.272400 29.863500 -4.889344 0.809128 -5.166686 -8.142250 -0.503310 -9.981232 5.029682 -2.564810 23.038835 -0.316900 -1.501200 7.227000 -81.421823 21.469097 34.888622 24.247330 -23.531310 -6.021433 1.467287 0.342900 18.798865 -7.125000 0.000000 0.000000 86.494846 -25.010100 58.577678 -28.820517 32.607932 -10.698345 0.880712 0.873323 2.013425 7.125000 0.000000 0.000000 
8.802680 17.815016 49.986683 -178.836793 -1.222415 178.707530 -19.746174 -21.531285 -0.847029 -2.591185 8.481111 24.169654 -4.770810 15.032594 -9.381155 1.035100 -6.471000 -18.157400 18.959951 8.442531 -7.036213 1.113911 -9.455169 28.980954 5.288469 -18.553947 -15.292877 -1.668900 -8.139300 23.138100 -4.211617 0.410997 -1.557748 -7.476822 -0.528975 -8.454898 4.780240 -1.949656 25.506307 -0.175200 -1.084500 9.671500 -82.477113 16.812850 30.535883 23.793503 -23.270173 -5.899136 1.756433 0.111665 19.479378 -7.125000 0.000000 0.000000 84.383519 -17.888653 60.513417 -27.181736 31.083312 -9.766996 0.888544 0.962826 -0.383238 7.125000 0.000000 0.000000 
8.803746 17.816200 49.982063 -178.898484 -1.137879 178.697149 -19.809585 -21.474573 -0.797634 -2.606139 8.457452 24.111341 -4.764343 15.025545 -9.437738 1.008700 -6.390500 -17.921800 18.898179 8.474084 -7.023310 1.102785 -9.470549 29.036095 5.262403 -18.503689 -15.377840 -0.887200 -6.004200 16.796500 -4.179758 0.336677 -1.548241 -7.393481 -0.558752 -8.435896 4.614509 -1.842445 25.523519 -0.244200 -1.046900 9.673300 -82.440575 16.981200 30.145186 23.961790 -23.592354 -6.128138 1.951669 -0.003569 18.884763 -7.125000 0.000000 0.000000 84.504115 -17.921437 59.829335 -27.150989 31.041066 -9.723095 0.896082 0.952101 0.051257 7.125000 0.000000 0.000000 
8.805642 17.818569 49.979931 -179.017987 -1.102706 178.689590 -19.907704 -21.281616 -0.836825 -2.607122 8.452289 24.097447 -4.777387 15.054282 -9.359894 1.030200 -6.456200 -18.113800 18.784732 8.533183 -6.995831 1.096618 -9.468310 29.037572 5.264290 -18.483706 -15.315314 -0.012900 -0.733700 2.016200 -4.248055 0.246439 -1.526061 -7.352638 -0.591025 -8.450952 4.915839 -1.796915 25.337269 -0.111800 -1.009700 9.550600 -82.882121 17.109577 28.820789 23.978635 -23.837594 -6.392688 2.236482 -0.158744 19.275295 -7.125000 0.000000 0.000000 84.690280 -17.873021 59.165068 -27.077299 30.962733 -9.662139 0.894105 0.949990 0.316240 7.125000 0.000000 0.000000 
8.806708 17.820228 49.974719 -178.983586 -0.954493 178.677223 -19.881864 -21.223244 -0.820270 -2.605904 8.452984 24.105244 -4.806395 15.120554 -9.376980 1.122800 -6.730900 -18.920500 18.830552 8.650935 -6.928595 1.108166 -9.453463 28.989389 5.272788 -18.492150 -15.241148 -0.015000 -0.791500 2.175200 -4.166005 0.223061 -1.504210 -7.334455 -0.604364 -8.449104 4.826518 -1.673735 25.572550 -0.132800 -0.968200 9.652300 -83.436385 17.199373 27.435382 23.913975 -24.002727 -6.648418 2.496496 -0.282653 20.066033 -7.125000 0.000000 0.000000 84.761462 -17.793341 58.609629 -26.880919 30.755663 -9.532693 0.899514 0.943814 0.799469 7.125000 0.000000 0.000000 
8.807181 17.819754 49.965954 -178.802113 -0.774126 178.661297 -19.698197 -21.225954 -0.796226 -2.602056 8.455709 24.129591 -4.776682 15.050396 -9.460291 1.327900 -7.297600 -20.600000 19.046265 8.747102 -6.833785 1.131558 -9.432140 28.923990 5.236735 -18.416462 -15.230415 -0.005600 -0.482100 1.324800 -4.008908 0.270767 -1.445479 -7.377574 -0.589390 -8.392663 4.705107 -1.549882 25.635424 -0.179900 -0.921700 9.671700 -83.940897 17.296199 26.425319 24.045384 -24.165303 -6.724983 2.512068 -0.338164 20.945554 -7.125000 0.000000 0.000000 84.839362 -17.797450 57.884869 -26.779962 30.633785 -9.445455 0.899632 0.934407 1.529943 7.125000 0.000000 0.000000 
8.808484 17.816200 49.959084 -178.702813 -0.637354 178.644318 -19.597270 -21.225273 -0.780129 -2.597620 8.456817 24.150531 -4.677873 14.826136 -9.506029 1.146000 -6.797600 -19.117200 19.190557 8.925108 -6.708501 1.154275 -9.410079 28.860187 5.223582 -18.402661 -15.260294 -0.000500 -0.145900 0.400800 -3.896320 0.286079 -1.382214 -7.378065 -0.579531 -8.347367 4.891728 -1.536122 25.559675 -0.088600 -0.915900 9.599800 -84.354587 17.388551 25.253160 24.267192 -24.445195 -6.859443 2.533289 -0.367478 20.932000 -7.125000 0.000000 0.000000 84.877426 -17.898465 57.503669 -26.971411 30.820476 -9.542219 0.884246 0.939767 1.327581 7.125000 0.000000 0.000000 
